<svg width="70" height="73" viewBox="0 0 70 73" fill="none" xmlns="http://www.w3.org/2000/svg">
<rect y="0.09375" width="70" height="72" rx="15" fill="url(#paint0_linear_19_292)"/>
<path d="M21.6802 22.7738C21.6802 21.0074 22.3819 19.3134 23.6308 18.0644C24.8798 16.8154 26.5738 16.1138 28.3402 16.1138H35.0002V29.4338H28.3402C26.5738 29.4338 24.8798 28.7321 23.6308 27.4831C22.3819 26.2341 21.6802 24.5401 21.6802 22.7738Z" stroke="white" stroke-width="3.80571" stroke-linecap="round" stroke-linejoin="round"/>
<path d="M35 16.1138H41.66C42.5346 16.1138 43.4006 16.286 44.2087 16.6207C45.0167 16.9554 45.7509 17.446 46.3693 18.0644C46.9878 18.6829 47.4783 19.4171 47.813 20.2251C48.1477 21.0331 48.32 21.8992 48.32 22.7738C48.32 23.6484 48.1477 24.5144 47.813 25.3224C47.4783 26.1305 46.9878 26.8646 46.3693 27.4831C45.7509 28.1015 45.0167 28.5921 44.2087 28.9268C43.4006 29.2615 42.5346 29.4338 41.66 29.4338H35V16.1138Z" stroke="white" stroke-width="3.80571" stroke-linecap="round" stroke-linejoin="round"/>
<path d="M35 36.0938C35 35.2192 35.1723 34.3531 35.507 33.5451C35.8417 32.7371 36.3322 32.0029 36.9507 31.3844C37.5691 30.766 38.3033 30.2754 39.1113 29.9407C39.9194 29.606 40.7854 29.4338 41.66 29.4338C42.5346 29.4338 43.4006 29.606 44.2087 29.9407C45.0167 30.2754 45.7509 30.766 46.3693 31.3844C46.9878 32.0029 47.4783 32.7371 47.813 33.5451C48.1477 34.3531 48.32 35.2192 48.32 36.0938C48.32 36.9684 48.1477 37.8344 47.813 38.6424C47.4783 39.4505 46.9878 40.1847 46.3693 40.8031C45.7509 41.4215 45.0167 41.9121 44.2087 42.2468C43.4006 42.5815 42.5346 42.7538 41.66 42.7538C40.7854 42.7538 39.9194 42.5815 39.1113 42.2468C38.3033 41.9121 37.5691 41.4215 36.9507 40.8031C36.3322 40.1847 35.8417 39.4505 35.507 38.6424C35.1723 37.8344 35 36.9684 35 36.0938V36.0938Z" stroke="white" stroke-width="3.80571" stroke-linecap="round" stroke-linejoin="round"/>
<path d="M21.6802 49.4138C21.6802 47.6474 22.3819 45.9534 23.6308 44.7044C24.8798 43.4554 26.5738 42.7538 28.3402 42.7538H35.0002V49.4138C35.0002 51.1801 34.2985 52.8741 33.0495 54.1231C31.8005 55.3721 30.1065 56.0738 28.3402 56.0738C26.5738 56.0738 24.8798 55.3721 23.6308 54.1231C22.3819 52.8741 21.6802 51.1801 21.6802 49.4138Z" stroke="white" stroke-width="3.80571" stroke-linecap="round" stroke-linejoin="round"/>
<path d="M21.6802 36.0937C21.6802 34.3274 22.3819 32.6334 23.6308 31.3844C24.8798 30.1354 26.5738 29.4337 28.3402 29.4337H35.0002V42.7537H28.3402C26.5738 42.7537 24.8798 42.0521 23.6308 40.8031C22.3819 39.5541 21.6802 37.8601 21.6802 36.0937Z" stroke="white" stroke-width="3.80571" stroke-linecap="round" stroke-linejoin="round"/>
<defs>
<linearGradient id="paint0_linear_19_292" x1="62.4304" y1="36.0937" x2="4.27859e-07" y2="36.0937" gradientUnits="userSpaceOnUse">
<stop stop-color="#F9B53A"/>
<stop offset="1" stop-color="#FF59A8"/>
</linearGradient>
</defs>
</svg>
