<svg width="42" height="42" viewBox="0 0 42 42" fill="none" xmlns="http://www.w3.org/2000/svg">
<path d="M18.9167 8.30014V36.1293C18.9167 38.1541 17.2752 39.7956 15.2504 39.7956C13.7009 39.7956 12.3188 38.8216 11.7977 37.3624L7.32599 24.5516M33.5 23.1289C36.9518 23.1289 39.75 20.3307 39.75 16.8789C39.75 13.4271 36.9518 10.6289 33.5 10.6289M7.32599 24.5516C4.34229 23.2833 2.25 20.3254 2.25 16.8789C2.25 12.2766 5.98095 8.54559 10.5833 8.54559H14.4002C22.9432 8.54559 30.2852 5.97456 33.5 2.29559L33.5 31.4623C30.2852 27.7833 22.9432 25.2123 14.4002 25.2123L10.5833 25.2122C9.42746 25.2122 8.3266 24.9769 7.32599 24.5516Z" stroke="url(#paint0_linear_208_82)" stroke-width="3" stroke-linecap="round" stroke-linejoin="round"/>
<defs>
<linearGradient id="paint0_linear_208_82" x1="35.6949" y1="21.0456" x2="2.25" y2="21.0456" gradientUnits="userSpaceOnUse">
<stop stop-color="#F9B53A"/>
<stop offset="1" stop-color="#FF59A8"/>
</linearGradient>
</defs>
</svg>
