<svg width="42" height="42" viewBox="0 0 42 42" fill="none" xmlns="http://www.w3.org/2000/svg">
<path d="M35.5833 18.9623H6.41667M35.5833 18.9623C37.8845 18.9623 39.75 20.8277 39.75 23.1289V35.6289C39.75 37.9301 37.8845 39.7956 35.5833 39.7956H6.41667C4.11548 39.7956 2.25 37.9301 2.25 35.6289V23.1289C2.25 20.8277 4.11548 18.9623 6.41667 18.9623M35.5833 18.9623V14.7956C35.5833 12.4944 33.7179 10.6289 31.4167 10.6289M6.41667 18.9623V14.7956C6.41667 12.4944 8.28215 10.6289 10.5833 10.6289M10.5833 10.6289V6.46226C10.5833 4.16107 12.4488 2.29559 14.75 2.29559H27.25C29.5512 2.29559 31.4167 4.16107 31.4167 6.46226V10.6289M10.5833 10.6289H31.4167" stroke="url(#paint0_linear_208_44)" stroke-width="3" stroke-linecap="round" stroke-linejoin="round"/>
<defs>
<linearGradient id="paint0_linear_208_44" x1="35.6949" y1="21.0456" x2="2.25" y2="21.0456" gradientUnits="userSpaceOnUse">
<stop stop-color="#F9B53A"/>
<stop offset="1" stop-color="#FF59A8"/>
</linearGradient>
</defs>
</svg>
